HIERARCHY
ROOT Hips
{
	OFFSET	0.00	0.00	0.00
	CHANNELS 6 Xposition Yposition Zposition Zrotation Xrotation Yrotation
	JOINT LeftUpLeg
	{
		OFFSET	 0.126116	-0.014019	-0.065224
		CHANNELS 3 Zrotation Xrotation Yrotation
		JOINT LeftLeg
		{
			OFFSET	 0.000000	 0.000000	 0.569914
			CHANNELS 3 Zrotation Xrotation Yrotation
			JOINT LeftFoot
			{
				OFFSET	 0.000000	 0.000000	 0.544423
				CHANNELS 3 Zrotation Xrotation Yrotation
				JOINT LeftToeBase
				{
					OFFSET	 0.000000	 0.000000	 0.207117
					CHANNELS 3 Zrotation Xrotation Yrotation
					End Site
					{
						OFFSET	 0.000000	 0.000000	 0.207117
					}
				}
			}
		}
	}
	JOINT RightUpLeg
	{
		OFFSET	-0.124023	-0.008373	-0.065224
		CHANNELS 3 Zrotation Xrotation Yrotation
		JOINT RightLeg
		{
			OFFSET	 0.000000	 0.000000	 0.570047
			CHANNELS 3 Zrotation Xrotation Yrotation
			JOINT RightFoot
			{
				OFFSET	 0.000000	 0.000000	 0.544354
				CHANNELS 3 Zrotation Xrotation Yrotation
				JOINT RightToeBase
				{
					OFFSET	 0.000000	 0.000000	 0.207540
					CHANNELS 3 Zrotation Xrotation Yrotation
					End Site
					{
						OFFSET	 0.000000	 0.000000	 0.207540
					}
				}
			}
		}
	}
	JOINT Spine
	{
		OFFSET	 0.000184	-0.007763	 0.117403
		CHANNELS 3 Zrotation Xrotation Yrotation
		JOINT Spine1
		{
			OFFSET	 0.000000	 0.000000	 0.137269
			CHANNELS 3 Zrotation Xrotation Yrotation
			JOINT Spine2
			{
				OFFSET	 0.000000	 0.000000	 0.156879
				CHANNELS 3 Zrotation Xrotation Yrotation
				JOINT LeftShoulder
				{
					OFFSET	 0.080501	-0.002496	 0.160144
					CHANNELS 3 Zrotation Xrotation Yrotation
					JOINT LeftArm
					{
						OFFSET	 0.000000	 0.000000	 0.164363
						CHANNELS 3 Zrotation Xrotation Yrotation
						JOINT LeftForeArm
						{
							OFFSET	 0.000000	 0.000000	 0.364576
							CHANNELS 3 Zrotation Xrotation Yrotation
							JOINT LeftHand
							{
								OFFSET	 0.000000	 0.000000	 0.360812
								CHANNELS 3 Zrotation Xrotation Yrotation
								JOINT LeftHandIndex1
								{
									OFFSET	 0.000000	 0.000000	 0.086006
									CHANNELS 3 Zrotation Xrotation Yrotation
									JOINT LeftHandIndex2
									{
										OFFSET	 0.000000	 0.000000	 0.047236
										CHANNELS 3 Zrotation Xrotation Yrotation
										JOINT LeftHandIndex3
										{
											OFFSET	-0.004284	-0.000551	 0.038166
											CHANNELS 3 Zrotation Xrotation Yrotation
											End Site
											{
												OFFSET	-0.004284	-0.000551	 0.038166
											}
										}
									}
								}
							}
						}
					}
				}
				JOINT Neck
				{
					OFFSET	 0.000000	 0.000000	 0.176489
					CHANNELS 3 Zrotation Xrotation Yrotation
					JOINT Head
					{
						OFFSET	 0.000000	-0.001747	 0.077940
						CHANNELS 3 Zrotation Xrotation Yrotation
						End Site
						{
							OFFSET	 0.000000	-0.001747	 0.077940
						}
					}
				}
				JOINT RightShoulder
				{
					OFFSET	-0.080363	 0.000306	 0.159706
					CHANNELS 3 Zrotation Xrotation Yrotation
					JOINT RightArm
					{
						OFFSET	 0.000000	 0.000000	 0.164196
						CHANNELS 3 Zrotation Xrotation Yrotation
						JOINT RightForeArm
						{
							OFFSET	 0.000000	 0.000000	 0.365611
							CHANNELS 3 Zrotation Xrotation Yrotation
							JOINT RightHand
							{
								OFFSET	 0.000000	 0.000000	 0.360648
								CHANNELS 3 Zrotation Xrotation Yrotation
								JOINT RightHandIndex1
								{
									OFFSET	 0.000000	 0.000000	 0.069977
									CHANNELS 3 Zrotation Xrotation Yrotation
									JOINT RightHandIndex2
									{
										OFFSET	 0.000000	 0.000000	 0.052305
										CHANNELS 3 Zrotation Xrotation Yrotation
										JOINT RightHandIndex3
										{
											OFFSET	 0.009002	-0.000782	 0.042196
											CHANNELS 3 Zrotation Xrotation Yrotation
											End Site
											{
												OFFSET	 0.009002	-0.000782	 0.042196
											}
										}
									}
								}
							}
						}
					}
				}
			}
		}
	}
}
MOTION
Frames:    4
Frame Time: 0.03333334
-0.000393	 0.019755	 1.271049	 0.003707	 0.009173	-0.053779	-11.204760	-1.686566	 179.708600	 1.469563	-12.250760	-0.715724	-4.377650	 71.663090	-2.002703	-2.385833	 28.452760	 0.000004	 11.077400	-2.197731	-179.577300	-1.448249	-12.871270	 0.739355	 4.341419	 71.799630	 1.879039	 2.384658	 28.388730	 0.000004	 1.284055	 2.713393	 0.000436	 0.666757	 3.682067	 0.335589	-2.003495	-4.682962	-0.473544	-91.776110	 78.527420	 179.999900	 67.889630	 43.774360	-54.887950	-7.770717	 4.211799	-10.587370	-30.108510	-9.566844	-4.411212	-2.635965	 4.993658	 6.788941	-5.165319	 0.784187	 3.516649	-5.225038	 0.466231	 0.424329	-0.000002	-3.783157	-0.089647	-1.935734	 5.016952	 0.084796	 89.782080	 78.203920	-180.000000	-63.932080	 41.718510	 54.385100	 7.060127	 5.770973	 13.496530	 30.136960	-10.492170	 8.954758	 6.112037	 4.509576	-0.364401	 4.968462	 1.518543	-9.347576	 5.168945	 0.703820	 2.021906
-0.000392	 0.019768	 1.270889	 0.003699	 0.009167	-0.053746	-11.305460	-1.776341	 179.723500	 1.467142	-12.438000	-0.727014	-4.414683	 71.761270	-1.963789	-2.385833	 28.452760	 0.000004	 11.178250	-2.282956	-179.591500	-1.445866	-13.049630	 0.749959	 4.377649	 71.892980	 1.840927	 2.384658	 28.388730	 0.000004	 1.284067	 2.713775	 0.000408	 0.666752	 3.680725	 0.335562	-2.003467	-4.681259	-0.473481	-91.776180	 78.527470	 180.000000	 67.845050	 43.798420	-54.833160	-7.757025	 4.220403	-10.609310	-30.117000	-9.675448	-4.412649	-2.635965	 4.993658	 6.788941	-5.165319	 0.784187	 3.516649	-5.225038	 0.466231	 0.424329	-0.000002	-3.783157	-0.089647	-1.935747	 5.017767	 0.084811	 89.782200	 78.203900	 179.999900	-63.941080	 41.157860	 54.927940	 6.350043	 5.566389	 13.486600	 30.254000	-11.132070	 8.660772	 6.112037	 4.509576	-0.364401	 4.968462	 1.518543	-9.347576	 5.168945	 0.703820	 2.021906
-0.000388	 0.019789	 1.270702	 0.003710	 0.009167	-0.053733	-11.446240	-1.899560	 179.744200	 1.463770	-12.695030	-0.742537	-4.466124	 71.896080	-1.909781	-2.385833	 28.452760	 0.000004	 11.319240	-2.400058	-179.611100	-1.442542	-13.294730	 0.764558	 4.428061	 72.021370	 1.787970	 2.384658	 28.388730	 0.000004	 1.284065	 2.714315	 0.000385	 0.666731	 3.678884	 0.335606	-2.003441	-4.678904	-0.473436	-91.776200	 78.527470	 180.000000	 67.745700	 43.843030	-54.712520	-7.730686	 4.232804	-10.641010	-30.133130	-9.881240	-4.415390	-2.635965	 4.993658	 6.788941	-5.165319	 0.784187	 3.516649	-5.225038	 0.466231	 0.424329	-0.000002	-3.783157	-0.089647	-1.935757	 5.018857	 0.084830	 89.782210	 78.203890	 179.999900	-63.725500	 40.211030	 56.261560	 5.114076	 5.025521	 12.995900	 30.468040	-12.185920	 8.196096	 6.112037	 4.509576	-0.364401	 4.968462	 1.518543	-9.347576	 5.168945	 0.703820	 2.021906
-0.000383	 0.019812	 1.270561	 0.003713	 0.009161	-0.053735	-11.585210	-2.018685	 179.764500	 1.460435	-12.943540	-0.757573	-4.516527	 72.026530	-1.856920	-2.385833	 28.452760	 0.000004	 11.458440	-2.513698	-179.630200	-1.439246	-13.532640	 0.778760	 4.477684	 72.146040	 1.735896	 2.384658	 28.388730	 0.000004	 1.284065	 2.714849	 0.000368	 0.666711	 3.677063	 0.335615	-2.003393	-4.676578	-0.473364	-91.776130	 78.527470	 179.999900	 67.591130	 43.888990	-54.516910	-7.697158	 4.247637	-10.678820	-30.154230	-10.150230	-4.419043	-2.635965	 4.993658	 6.788941	-5.165319	 0.784187	 3.516649	-5.225038	 0.466231	 0.424329	-0.000002	-3.783157	-0.089647	-1.935763	 5.019985	 0.084849	 89.782180	 78.203900	 179.999900	-62.850640	 38.832390	 57.766210	 3.170966	 4.529043	 13.029170	 30.031350	-13.496740	 7.358487	 6.112037	 4.509576	-0.364401	 4.968462	 1.518543	-9.347576	 5.168945	 0.703820	 2.021906
